<?xml version="1.0" encoding="UTF-8"?><svg xmlns="http://www.w3.org/2000/svg" xmlns:xlink="http://www.w3.org/1999/xlink" viewBox="0 0 976.96 791.22"><defs><style>.cls-1{filter:url(#drop-shadow-10);}.cls-2{filter:url(#drop-shadow-14);}.cls-3{filter:url(#drop-shadow-7);}.cls-4{filter:url(#drop-shadow-21);}.cls-5{fill:#222;}.cls-6{mix-blend-mode:multiply;}.cls-6,.cls-7{opacity:.2;}.cls-8{filter:url(#drop-shadow-4);}.cls-9{isolation:isolate;}.cls-10{filter:url(#drop-shadow-8);}.cls-11{filter:url(#drop-shadow-23);}.cls-12{filter:url(#drop-shadow-15);}.cls-13{filter:url(#drop-shadow-17);}.cls-14{filter:url(#drop-shadow-3);}.cls-15{filter:url(#drop-shadow-11);}.cls-7{fill:#fbfbfb;mix-blend-mode:overlay;}.cls-16{filter:url(#drop-shadow-1);}.cls-17{filter:url(#drop-shadow-6);}.cls-18{fill:#2a2a2a;}.cls-19{filter:url(#drop-shadow-22);}.cls-20{filter:url(#drop-shadow-20);}.cls-21{filter:url(#drop-shadow-5);}.cls-22{filter:url(#drop-shadow-2);}.cls-23{fill:#171717;}.cls-24{clip-path:url(#clippath);}.cls-25{fill:none;}.cls-26{filter:url(#drop-shadow-16);}.cls-27{filter:url(#drop-shadow-18);}.cls-28{filter:url(#drop-shadow-9);}.cls-29{filter:url(#drop-shadow-13);}.cls-30{fill:#333132;}.cls-31{filter:url(#drop-shadow-19);}.cls-32{fill:#1e1e1e;}.cls-33{filter:url(#drop-shadow-12);}</style><clipPath id="clippath"><rect class="cls-25" x="142.56" y="206.95" width="750" height="500"/></clipPath><filter id="drop-shadow-1" filterUnits="userSpaceOnUse"><feOffset dx="-7" dy="8"/><feGaussianBlur result="blur" stdDeviation="10"/><feFlood flood-color="#000" flood-opacity=".59"/><feComposite in2="blur" operator="in"/><feComposite in="SourceGraphic"/></filter><filter id="drop-shadow-2" filterUnits="userSpaceOnUse"><feOffset dx="-7" dy="8"/><feGaussianBlur result="blur-2" stdDeviation="10"/><feFlood flood-color="#000" flood-opacity=".59"/><feComposite in2="blur-2" operator="in"/><feComposite in="SourceGraphic"/></filter><filter id="drop-shadow-3" filterUnits="userSpaceOnUse"><feOffset dx="-7" dy="8"/><feGaussianBlur result="blur-3" stdDeviation="10"/><feFlood flood-color="#000" flood-opacity=".59"/><feComposite in2="blur-3" operator="in"/><feComposite in="SourceGraphic"/></filter><filter id="drop-shadow-4" filterUnits="userSpaceOnUse"><feOffset dx="-7" dy="8"/><feGaussianBlur result="blur-4" stdDeviation="10"/><feFlood flood-color="#000" flood-opacity=".59"/><feComposite in2="blur-4" operator="in"/><feComposite in="SourceGraphic"/></filter><filter id="drop-shadow-5" filterUnits="userSpaceOnUse"><feOffset dx="-7" dy="8"/><feGaussianBlur result="blur-5" stdDeviation="10"/><feFlood flood-color="#000" flood-opacity=".59"/><feComposite in2="blur-5" operator="in"/><feComposite in="SourceGraphic"/></filter><filter id="drop-shadow-6" filterUnits="userSpaceOnUse"><feOffset dx="-7" dy="8"/><feGaussianBlur result="blur-6" stdDeviation="10"/><feFlood flood-color="#000" flood-opacity=".59"/><feComposite in2="blur-6" operator="in"/><feComposite in="SourceGraphic"/></filter><filter id="drop-shadow-7" filterUnits="userSpaceOnUse"><feOffset dx="-7" dy="8"/><feGaussianBlur result="blur-7" stdDeviation="10"/><feFlood flood-color="#000" flood-opacity=".59"/><feComposite in2="blur-7" operator="in"/><feComposite in="SourceGraphic"/></filter><filter id="drop-shadow-8" filterUnits="userSpaceOnUse"><feOffset dx="-7" dy="8"/><feGaussianBlur result="blur-8" stdDeviation="10"/><feFlood flood-color="#000" flood-opacity=".59"/><feComposite in2="blur-8" operator="in"/><feComposite in="SourceGraphic"/></filter><filter id="drop-shadow-9" filterUnits="userSpaceOnUse"><feOffset dx="-7" dy="8"/><feGaussianBlur result="blur-9" stdDeviation="10"/><feFlood flood-color="#000" flood-opacity=".59"/><feComposite in2="blur-9" operator="in"/><feComposite in="SourceGraphic"/></filter><filter id="drop-shadow-10" filterUnits="userSpaceOnUse"><feOffset dx="-7" dy="8"/><feGaussianBlur result="blur-10" stdDeviation="10"/><feFlood flood-color="#000" flood-opacity=".59"/><feComposite in2="blur-10" operator="in"/><feComposite in="SourceGraphic"/></filter><filter id="drop-shadow-11" filterUnits="userSpaceOnUse"><feOffset dx="-7" dy="8"/><feGaussianBlur result="blur-11" stdDeviation="10"/><feFlood flood-color="#000" flood-opacity=".59"/><feComposite in2="blur-11" operator="in"/><feComposite in="SourceGraphic"/></filter><filter id="drop-shadow-12" filterUnits="userSpaceOnUse"><feOffset dx="-7" dy="8"/><feGaussianBlur result="blur-12" stdDeviation="10"/><feFlood flood-color="#000" flood-opacity=".59"/><feComposite in2="blur-12" operator="in"/><feComposite in="SourceGraphic"/></filter><filter id="drop-shadow-13" filterUnits="userSpaceOnUse"><feOffset dx="-7" dy="8"/><feGaussianBlur result="blur-13" stdDeviation="10"/><feFlood flood-color="#000" flood-opacity=".59"/><feComposite in2="blur-13" operator="in"/><feComposite in="SourceGraphic"/></filter><filter id="drop-shadow-14" filterUnits="userSpaceOnUse"><feOffset dx="-7" dy="8"/><feGaussianBlur result="blur-14" stdDeviation="10"/><feFlood flood-color="#000" flood-opacity=".59"/><feComposite in2="blur-14" operator="in"/><feComposite in="SourceGraphic"/></filter><filter id="drop-shadow-15" filterUnits="userSpaceOnUse"><feOffset dx="-7" dy="8"/><feGaussianBlur result="blur-15" stdDeviation="10"/><feFlood flood-color="#000" flood-opacity=".59"/><feComposite in2="blur-15" operator="in"/><feComposite in="SourceGraphic"/></filter><filter id="drop-shadow-16" filterUnits="userSpaceOnUse"><feOffset dx="-7" dy="8"/><feGaussianBlur result="blur-16" stdDeviation="10"/><feFlood flood-color="#000" flood-opacity=".59"/><feComposite in2="blur-16" operator="in"/><feComposite in="SourceGraphic"/></filter><filter id="drop-shadow-17" filterUnits="userSpaceOnUse"><feOffset dx="-7" dy="8"/><feGaussianBlur result="blur-17" stdDeviation="10"/><feFlood flood-color="#000" flood-opacity=".59"/><feComposite in2="blur-17" operator="in"/><feComposite in="SourceGraphic"/></filter><filter id="drop-shadow-18" filterUnits="userSpaceOnUse"><feOffset dx="-7" dy="8"/><feGaussianBlur result="blur-18" stdDeviation="10"/><feFlood flood-color="#000" flood-opacity=".59"/><feComposite in2="blur-18" operator="in"/><feComposite in="SourceGraphic"/></filter><filter id="drop-shadow-19" filterUnits="userSpaceOnUse"><feOffset dx="-7" dy="8"/><feGaussianBlur result="blur-19" stdDeviation="10"/><feFlood flood-color="#000" flood-opacity=".59"/><feComposite in2="blur-19" operator="in"/><feComposite in="SourceGraphic"/></filter><filter id="drop-shadow-20" filterUnits="userSpaceOnUse"><feOffset dx="-7" dy="8"/><feGaussianBlur result="blur-20" stdDeviation="10"/><feFlood flood-color="#000" flood-opacity=".59"/><feComposite in2="blur-20" operator="in"/><feComposite in="SourceGraphic"/></filter><filter id="drop-shadow-21" filterUnits="userSpaceOnUse"><feOffset dx="-7" dy="8"/><feGaussianBlur result="blur-21" stdDeviation="10"/><feFlood flood-color="#000" flood-opacity=".59"/><feComposite in2="blur-21" operator="in"/><feComposite in="SourceGraphic"/></filter><filter id="drop-shadow-22" filterUnits="userSpaceOnUse"><feOffset dx="-7" dy="8"/><feGaussianBlur result="blur-22" stdDeviation="10"/><feFlood flood-color="#000" flood-opacity=".59"/><feComposite in2="blur-22" operator="in"/><feComposite in="SourceGraphic"/></filter><filter id="drop-shadow-23" filterUnits="userSpaceOnUse"><feOffset dx="-7" dy="8"/><feGaussianBlur result="blur-23" stdDeviation="10"/><feFlood flood-color="#000" flood-opacity=".59"/><feComposite in2="blur-23" operator="in"/><feComposite in="SourceGraphic"/></filter></defs><g class="cls-9"><g id="BACKGROUND"><rect class="cls-23" x="142.56" y="206.95" width="750" height="500"/></g><g id="OBJECTS"><g class="cls-24"><g class="cls-6"><path class="cls-30" d="M705.54,465.89c-.09,0-.17-.01-.26-.03l-25.49-6.83c-.34-.09-.61-.36-.71-.71l-6.83-25.49c-.09-.35,0-.71,.26-.97l18.25-18.25-6.68-24.94c-.09-.35,0-.71,.26-.97l18.66-18.66c.25-.25,.62-.35,.97-.26l25.49,6.83c.34,.09,.61,.36,.71,.71l6.68,24.94,24.94,6.68c.34,.09,.61,.36,.71,.71l6.83,25.49c.09,.35,0,.71-.26,.97l-18.66,18.66c-.25,.25-.62,.35-.97,.26l-24.94-6.68-18.25,18.25c-.19,.19-.45,.29-.71,.29Zm-24.68-8.65l24.38,6.53,18.25-18.25c.25-.25,.62-.35,.97-.26l24.94,6.68,17.85-17.85-6.53-24.38-24.94-6.68c-.34-.09-.61-.36-.71-.71l-6.68-24.94-24.38-6.53-17.85,17.85,6.68,24.94c.09,.35,0,.71-.26,.97l-18.25,18.25,6.53,24.38Z"/><polygon class="cls-30" points="893.92 206.32 900.75 231.82 882.09 250.48 856.6 243.65 849.77 218.15 868.43 199.49 893.92 206.32"/><polygon class="cls-30" points="625.27 609.19 632.1 634.68 613.44 653.34 587.95 646.51 581.12 621.02 599.78 602.36 625.27 609.19"/><polygon class="cls-30" points="550.41 589.59 557.24 615.08 538.58 633.75 513.09 626.92 506.26 601.42 524.92 582.76 550.41 589.59"/><polygon class="cls-30" points="538.63 632.85 545.46 658.34 526.8 677 501.3 670.17 494.47 644.68 513.13 626.02 538.63 632.85"/><polygon class="cls-30" points="669.19 597.45 676.02 622.94 657.36 641.6 631.87 634.77 625.04 609.28 643.7 590.61 669.19 597.45"/><path class="cls-30" d="M814.02,518.68c-.09,0-.17-.01-.26-.03l-25.49-6.83c-.34-.09-.61-.36-.71-.71l-6.83-25.49c-.09-.34,0-.71,.26-.97l18.66-18.66c.25-.25,.62-.35,.97-.26l25.49,6.83c.34,.09,.61,.36,.71,.71l6.83,25.49c.09,.34,0,.71-.26,.97l-18.66,18.66c-.19,.19-.45,.29-.71,.29Zm-24.68-8.65l24.38,6.53,17.85-17.85-6.53-24.38-24.38-6.53-17.85,17.85,6.53,24.38Z"/><path class="cls-30" d="M670.22,598.85c-.09,0-.17-.01-.26-.03l-25.49-6.83c-.34-.09-.61-.36-.71-.71l-6.83-25.49c-.09-.34,0-.71,.26-.97l18.25-18.25-6.68-24.93c-.09-.34,0-.71,.26-.97l18.66-18.66c.25-.25,.62-.35,.97-.26l24.94,6.68,18.25-18.25c.25-.25,.62-.35,.97-.26l25.49,6.83c.34,.09,.61,.36,.71,.71l6.83,25.49c.09,.34,0,.71-.26,.97l-18.66,18.66c-.25,.25-.62,.35-.97,.26l-24.94-6.68-17.85,17.85,6.68,24.94c.09,.34,0,.71-.26,.97l-18.66,18.66c-.19,.19-.45,.29-.71,.29Zm-24.68-8.65l24.38,6.53,17.85-17.85-6.68-24.94c-.09-.34,0-.71,.26-.97l18.66-18.66c.25-.25,.62-.35,.97-.26l24.94,6.68,17.85-17.85-6.53-24.38-24.38-6.53-18.25,18.25c-.25,.25-.62,.35-.97,.26l-24.94-6.68-17.85,17.85,6.68,24.93c.09,.34,0,.71-.26,.97l-18.25,18.25,6.53,24.38Z"/><path class="cls-30" d="M395.42,713.85c-.09,0-.17-.01-.26-.03l-25.49-6.83c-.34-.09-.61-.36-.71-.71l-6.83-25.49c-.09-.34,0-.71,.26-.97l18.25-18.25-6.68-24.94c-.09-.34,0-.71,.26-.97l18.66-18.66c.25-.25,.62-.35,.97-.26l24.94,6.68,18.25-18.25c.25-.25,.62-.35,.97-.26l25.49,6.83c.34,.09,.61,.36,.71,.71l6.83,25.49c.09,.34,0,.71-.26,.97l-18.66,18.66c-.25,.25-.62,.35-.97,.26l-24.93-6.68-17.85,17.85,6.68,24.93c.09,.34,0,.71-.26,.97l-18.66,18.66c-.19,.19-.45,.29-.71,.29Zm-24.68-8.65l24.38,6.53,17.85-17.85-6.68-24.93c-.09-.34,0-.71,.26-.97l18.66-18.66c.25-.25,.62-.35,.97-.26l24.94,6.68,17.85-17.85-6.53-24.38-24.38-6.53-18.25,18.25c-.25,.25-.62,.35-.97,.26l-24.94-6.68-17.85,17.85,6.68,24.94c.09,.34,0,.71-.26,.97l-18.25,18.25,6.53,24.38Z"/><path class="cls-30" d="M849.33,386.61c-.09,0-.17-.01-.26-.03l-25.49-6.83c-.34-.09-.61-.36-.71-.71l-6.83-25.49c-.09-.35,0-.71,.26-.97l18.25-18.25-6.68-24.94c-.09-.35,0-.71,.26-.97l18.66-18.66c.25-.25,.62-.35,.97-.26l24.94,6.68,18.25-18.25c.25-.25,.62-.35,.97-.26l25.49,6.83c.34,.09,.61,.36,.71,.71l6.83,25.49c.09,.35,0,.71-.26,.97l-18.66,18.66c-.25,.25-.62,.35-.97,.26l-24.94-6.68-17.85,17.85,6.68,24.94c.09,.35,0,.71-.26,.97l-18.66,18.66c-.19,.19-.45,.29-.71,.29Zm-24.68-8.65l24.38,6.53,17.85-17.85-6.68-24.94c-.09-.35,0-.71,.26-.97l18.66-18.66c.25-.25,.62-.35,.97-.26l24.94,6.68,17.85-17.85-6.53-24.38-24.38-6.53-18.25,18.25c-.25,.25-.62,.35-.97,.26l-24.94-6.68-17.85,17.85,6.68,24.94c.09,.35,0,.71-.26,.97l-18.25,18.25,6.53,24.38Z"/></g><g class="cls-16"><polygon class="cls-32" points="708.93 655.02 702.1 629.53 720.76 610.86 746.25 617.69 764.92 599.03 790.41 605.86 809.07 587.2 834.56 594.03 853.23 575.37 846.4 549.88 865.06 531.21 890.55 538.05 909.21 519.38 902.38 493.89 921.04 475.23 946.54 482.06 953.37 507.55 934.7 526.22 941.54 551.71 922.87 570.37 897.38 563.54 878.72 582.2 885.55 607.69 866.89 626.36 841.4 619.53 822.73 638.19 829.56 663.68 810.9 682.34 785.41 675.51 778.58 650.02 753.08 643.19 734.42 661.85 741.25 687.34 766.75 694.17 773.58 719.67 799.07 726.5 805.9 751.99 787.24 770.65 761.75 763.82 743.08 782.48 717.59 775.65 710.76 750.16 729.42 731.5 722.59 706 697.1 699.17 690.27 673.68 708.93 655.02"/><path class="cls-7" d="M690.27,673.68l6.83,25.49,25.49,6.83,6.83,25.49-18.66,18.66,6.83,25.49,25.49,6.83,18.66-18.66,25.49,6.83,18.66-18.66-6.83-25.49-25.49-6.83-6.83-25.49-25.49-6.83-6.83-25.49,18.66-18.66,25.49,6.83,6.83,25.49,25.49,6.83,18.66-18.66-6.83-25.49,18.66-18.66,25.49,6.83,18.66-18.66-6.83-25.49,18.66-18.66,25.49,6.83,18.66-18.66-6.83-25.49,18.66-18.66-6.83-25.49-25.49-6.83-18.66,18.66,6.83,25.49-18.66,18.66-25.49-6.83-18.66,18.66,6.83,25.49-18.66,18.66-25.49-6.83-18.66,18.66-25.49-6.83-18.66,18.66-25.49-6.83-18.66,18.66,6.83,25.49-18.66,18.66Zm12.95-43.86l17.85-17.85,25.49,6.83,18.66-18.66,25.49,6.83,18.66-18.66,25.49,6.83,19.48-19.48-6.83-25.49,17.85-17.85,25.49,6.83,19.48-19.48-6.83-25.49,17.85-17.85,24.38,6.53,6.53,24.38-18.66,18.66,6.83,25.49-17.85,17.85-25.49-6.83-19.48,19.48,6.83,25.49-17.85,17.85-25.49-6.83-19.48,19.48,6.83,25.49-17.85,17.85-24.38-6.53-6.83-25.49-26.61-7.13-19.48,19.48,7.13,26.61,25.49,6.83,6.83,25.49,25.49,6.83,6.53,24.38-17.85,17.85-25.49-6.83-18.66,18.66-24.38-6.53-6.53-24.38,18.66-18.66-7.13-26.61-25.49-6.83-6.53-24.38,18.66-18.66-6.83-25.49Z"/></g><g class="cls-22"><polygon class="cls-5" points="720.69 610.87 713.86 585.38 688.37 578.55 681.54 553.06 700.2 534.39 725.69 541.23 744.35 522.56 769.85 529.39 788.51 510.73 814 517.56 832.66 498.9 858.16 505.73 876.82 487.07 869.99 461.58 844.49 454.75 837.66 429.25 812.17 422.42 793.51 441.08 800.34 466.58 781.68 485.24 756.18 478.41 749.35 452.91 768.02 434.25 768.02 434.25 768.01 434.25 761.18 408.76 779.85 390.1 773.02 364.6 791.68 345.94 817.17 352.77 824 378.27 824 378.27 824 378.27 849.49 385.1 868.16 366.43 861.33 340.94 879.99 322.28 905.48 329.11 912.31 354.6 937.8 361.43 944.64 386.93 970.13 393.76 976.96 419.25 958.3 437.91 965.13 463.41 946.47 482.07 920.97 475.24 902.31 493.9 909.14 519.39 890.48 538.06 864.99 531.22 846.32 549.89 853.16 575.38 834.49 594.04 809 587.21 790.34 605.87 797.17 631.37 778.51 650.03 753.01 643.2 746.18 617.7 720.69 610.87"/><path class="cls-7" d="M746.18,617.7l6.83,25.49,25.49,6.83,18.66-18.66-6.83-25.49,18.66-18.66,25.49,6.83,18.66-18.66-6.83-25.49,18.66-18.66,25.49,6.83,18.66-18.66-6.83-25.49,18.66-18.66,25.49,6.83,18.66-18.66-6.83-25.49,18.66-18.66-6.83-25.49-25.49-6.83-6.83-25.49-25.49-6.83-6.83-25.49-25.49-6.83-18.66,18.66,6.83,25.49-18.66,18.66-25.49-6.83h0l-6.83-25.49-25.49-6.83-18.66,18.66,6.83,25.49-18.66,18.66,6.83,25.49h0l-18.66,18.66,6.83,25.49,25.49,6.83,18.66-18.66-6.83-25.49,18.66-18.66,25.49,6.83,6.83,25.49,25.49,6.83,6.83,25.49-18.66,18.66-25.49-6.83-18.66,18.66-25.49-6.83-18.66,18.66-25.49-6.83-18.66,18.66-25.49-6.83-18.66,18.66,6.83,25.49,25.49,6.83,6.83,25.49,25.49,6.83Zm-57-39.97l-6.53-24.38,17.85-17.85,25.49,6.83,18.66-18.66,25.49,6.83,18.66-18.66,25.49,6.83,18.66-18.66,25.49,6.83,19.48-19.48-7.13-26.61-25.49-6.83-6.83-25.49-26.61-7.13-19.48,19.48,6.83,25.49-17.85,17.85-24.38-6.53-6.53-24.38,18.66-18.66-6.83-25.49,18.66-18.66-6.83-25.49,17.85-17.85,24.38,6.53,6.83,25.49,26.61,7.13,19.48-19.48-6.83-25.49,17.85-17.85,24.38,6.53,6.83,25.49,25.49,6.83,6.83,25.49,25.49,6.83,6.53,24.38-18.66,18.66,6.83,25.49-17.85,17.85-25.49-6.83-19.48,19.48,6.83,25.49-17.85,17.85-25.49-6.83-19.48,19.48,6.83,25.49-17.85,17.85-25.49-6.83-19.48,19.48,6.83,25.49-17.85,17.85-24.38-6.53-6.83-25.49-25.49-6.83-6.83-25.49-25.49-6.83Z"/></g><g class="cls-14"><polygon class="cls-5" points="706.9 463.78 713.73 489.27 695.06 507.93 669.57 501.1 662.74 475.61 681.4 456.95 706.9 463.78"/><path class="cls-7" d="M681.4,456.95l-18.66,18.66,6.83,25.49,25.49,6.83,18.66-18.66-6.83-25.49-25.49-6.83Zm13.36,49.87l-24.38-6.53-6.53-24.38,17.85-17.85,24.38,6.53,6.53,24.38-17.85,17.85Z"/></g><g class="cls-8"><polygon class="cls-32" points="609.22 722.9 590.56 741.56 565.06 734.73 558.23 709.24 532.74 702.41 525.91 676.91 544.57 658.25 570.06 665.08 576.89 690.57 602.39 697.41 609.22 722.9"/><path class="cls-7" d="M602.39,697.41l-25.49-6.83-6.83-25.49-25.49-6.83-18.66,18.66,6.83,25.49,25.49,6.83,6.83,25.49,25.49,6.83,18.66-18.66-6.83-25.49Zm-12.13,43.04l-24.38-6.53-6.83-25.49-25.49-6.83-6.53-24.38,17.85-17.85,24.38,6.53,6.83,25.49,25.49,6.83,6.53,24.38-17.85,17.85Z"/></g><g class="cls-21"><polygon class="cls-18" points="750.78 536.03 724.35 562.47 734.02 598.58 770.13 608.25 796.57 581.82 786.89 545.71 750.78 536.03"/><path class="cls-18" d="M786.89,545.71l-36.11-9.68-26.44,26.44,9.68,36.11,36.11,9.68,26.44-26.44-9.68-36.11Zm-17.06,61.43l-35-9.38-9.38-35,25.62-25.62,35,9.38,9.38,35-25.62,25.62Z"/></g><g class="cls-17"><polygon class="cls-18" points="870.4 461.17 877.23 486.67 858.57 505.33 833.07 498.5 826.24 473 844.9 454.34 870.4 461.17"/><path class="cls-7" d="M844.9,454.34l-18.66,18.66,6.83,25.49,25.49,6.83,18.66-18.66-6.83-25.49-25.49-6.83Zm13.36,49.87l-24.38-6.53-6.53-24.38,17.85-17.85,24.38,6.53,6.53,24.38-17.85,17.85Z"/></g><g class="cls-3"><polygon class="cls-5" points="875.64 747.07 850.15 740.24 843.31 714.74 817.82 707.91 799.16 726.58 799.16 726.58 799.16 726.58 773.67 719.75 755 738.41 729.51 731.58 722.68 706.08 741.34 687.42 734.51 661.93 709.02 655.1 690.36 673.76 664.86 666.93 646.2 685.59 653.03 711.08 678.53 717.91 685.36 743.41 710.85 750.24 717.68 775.73 743.17 782.56 761.84 763.9 787.33 770.73 805.99 752.07 831.48 758.9 838.31 784.39 863.81 791.22 882.47 772.56 875.64 747.07"/><path class="cls-7" d="M850.15,740.24l-6.83-25.49-25.49-6.83-18.66,18.66h0l-25.49-6.83-18.66,18.66-25.49-6.83-6.83-25.49,18.66-18.66-6.83-25.49-25.49-6.83-18.66,18.66-25.49-6.83-18.66,18.66,6.83,25.49,25.49,6.83,6.83,25.49,25.49,6.83,6.83,25.49,25.49,6.83,18.66-18.66,25.49,6.83,18.66-18.66,25.49,6.83,6.83,25.49,25.49,6.83,18.66-18.66-6.83-25.49-25.49-6.83Zm13.36,49.87l-24.38-6.53-6.83-25.49-26.61-7.13-18.66,18.66-25.49-6.83-18.66,18.66-24.38-6.53-6.83-25.49-25.49-6.83-6.83-25.49-25.49-6.83-6.53-24.38,17.85-17.85,25.49,6.83,18.66-18.66,24.38,6.53,6.53,24.38-18.66,18.66,7.13,26.61,26.61,7.13,18.66-18.66,25.49,6.83,18.66-18.66,24.38,6.53,6.83,25.49,25.49,6.83,6.53,24.38-17.85,17.85Z"/></g><g class="cls-10"><polygon class="cls-5" points="943.8 647.07 918.31 640.24 899.65 658.9 874.16 652.07 867.32 626.58 841.83 619.74 823.17 638.41 830 663.9 855.49 670.73 862.32 696.22 887.82 703.05 906.48 684.39 906.48 684.39 906.48 684.39 931.97 691.22 950.63 672.56 943.8 647.07"/><path class="cls-7" d="M855.49,670.73l6.83,25.49,25.49,6.83,18.66-18.66h0l25.49,6.83,18.66-18.66-6.83-25.49-25.49-6.83-18.66,18.66-25.49-6.83-6.83-25.49-25.49-6.83-18.66,18.66,6.83,25.49,25.49,6.83Zm-31.21-32.02l17.85-17.85,24.38,6.53,6.83,25.49,26.61,7.13,18.66-18.66,24.38,6.53,6.53,24.38-17.85,17.85-25.49-6.83-18.66,18.66-24.38-6.53-6.83-25.49-25.49-6.83-6.53-24.38Z"/></g><g class="cls-28"><polygon class="cls-18" points="918.38 640.2 899.71 658.87 874.22 652.04 867.39 626.54 886.05 607.88 911.54 614.71 918.38 640.2"/><path class="cls-7" d="M911.54,614.71l-25.49-6.83-18.66,18.66,6.83,25.49,25.49,6.83,18.66-18.66-6.83-25.49Zm-12.13,43.04l-24.38-6.53-6.53-24.38,17.85-17.85,24.38,6.53,6.53,24.38-17.85,17.85Z"/></g><g class="cls-1"><polygon class="cls-18" points="458.71 682.06 440.05 700.72 414.55 693.89 407.72 668.4 426.38 649.74 451.88 656.57 458.71 682.06"/><path class="cls-7" d="M451.88,656.57l-25.49-6.83-18.66,18.66,6.83,25.49,25.49,6.83,18.66-18.66-6.83-25.49Zm-12.13,43.04l-24.38-6.53-6.53-24.38,17.85-17.85,24.38,6.53,6.53,24.38-17.85,17.85Z"/></g><g class="cls-15"><polygon class="cls-5" points="701.76 629.75 676.27 622.91 657.61 641.58 657.61 641.58 632.12 634.75 613.45 653.41 620.28 678.9 620.29 678.9 620.28 678.9 601.62 697.56 608.45 723.06 633.95 729.89 652.61 711.23 645.78 685.73 645.78 685.73 645.78 685.73 664.44 667.07 664.44 667.07 664.44 667.07 689.93 673.9 708.6 655.24 701.76 629.75"/><path class="cls-7" d="M701.76,629.75l-25.49-6.83-18.66,18.66h0l-25.49-6.83-18.66,18.66,6.83,25.49h0l-18.66,18.66,6.83,25.49,25.49,6.55,18.66-18.66-6.83-25.21h0l18.66-18.66h0l25.49,6.83,18.66-18.66-6.83-25.49Zm-12.13,43.04l-25.49-6.83-19.48,19.48,6.83,25.49-17.85,17.85-24.38-6.53-6.53-24.38,18.66-18.66-6.83-25.49,17.85-17.85,25.49,6.83,18.66-18.66,24.38,6.53,6.53,24.38-17.85,17.85Z"/></g><g class="cls-33"><polygon class="cls-18" points="495.02 644.65 501.85 670.14 483.19 688.8 457.7 681.97 450.87 656.48 469.53 637.82 495.02 644.65"/><path class="cls-7" d="M469.53,637.82l-18.66,18.66,6.83,25.49,25.49,6.83,18.66-18.66-6.83-25.49-25.49-6.83Zm13.36,49.87l-24.38-6.53-6.53-24.38,17.85-17.85,24.38,6.53,6.53,24.38-17.85,17.85Z"/></g><g class="cls-6"><polygon class="cls-30" points="553.92 299.77 528.42 292.94 528.42 292.94 528.42 292.94 521.59 267.45 496.1 260.62 477.44 279.28 484.27 304.77 484.27 304.77 484.27 304.77 465.61 323.43 472.44 348.93 497.93 355.76 516.59 337.09 542.09 343.93 560.75 325.26 553.92 299.77"/><polygon class="cls-30" points="264.62 459.76 271.45 485.25 252.79 503.92 227.29 497.08 220.46 471.59 239.13 452.93 264.62 459.76"/><polygon class="cls-30" points="288.59 372.06 295.42 397.55 276.75 416.21 251.26 409.38 244.43 383.89 263.09 365.23 288.59 372.06"/><polygon class="cls-30" points="312.02 283.66 318.85 309.15 300.19 327.81 274.7 320.98 267.87 295.49 286.53 276.83 312.02 283.66"/><path class="cls-30" d="M185.01,605.39l-26.61-7.13-7.13-26.61,19.48-19.48,26.61,7.13,7.13,26.61-19.48,19.48Zm-24.98-8.76l24.38,6.53,17.85-17.85-6.53-24.38-24.38-6.53-17.85,17.85,6.53,24.38Z"/><path class="cls-30" d="M377.59,349.22l-26.61-7.13-7.13-26.61,18.66-18.66-6.83-25.49,19.48-19.48,25.49,6.83,18.66-18.66,26.61,7.13,7.13,26.61-19.48,19.48-25.49-6.83-17.85,17.85,6.83,25.49-19.48,19.48Zm-24.98-8.76l24.38,6.53,17.85-17.85-6.83-25.49,19.48-19.48,25.49,6.83,17.85-17.85-6.53-24.38-24.38-6.53-18.66,18.66-25.49-6.83-17.85,17.85,6.83,25.49-18.66,18.66,6.53,24.38Z"/><polygon class="cls-30" points="740.53 209.2 715.04 202.37 696.38 221.03 696.38 221.03 670.88 214.2 652.22 232.87 659.05 258.36 659.05 258.36 659.05 258.36 640.39 277.02 647.22 302.51 672.71 309.34 691.38 290.68 684.54 265.19 684.54 265.19 684.54 265.19 703.21 246.53 703.21 246.53 703.21 246.53 728.7 253.36 747.36 234.7 740.53 209.2"/></g><g class="cls-29"><polygon class="cls-32" points="86.49 412.51 79.66 387.02 54.16 380.19 47.33 354.69 66 336.03 91.49 342.86 110.15 324.2 135.64 331.03 154.31 312.37 179.8 319.2 198.46 300.54 223.95 307.37 242.62 288.71 235.78 263.21 210.29 256.38 203.46 230.89 177.97 224.06 159.31 242.72 166.14 268.21 147.47 286.88 121.98 280.05 115.15 254.55 133.81 235.89 133.81 235.89 133.81 235.89 126.98 210.4 145.64 191.74 138.81 166.24 157.48 147.58 182.97 154.41 189.8 179.9 189.8 179.91 189.8 179.9 215.29 186.73 233.95 168.07 227.12 142.58 245.79 123.92 271.28 130.75 278.11 156.24 303.6 163.07 310.43 188.57 335.93 195.4 342.76 220.89 324.1 239.55 330.93 265.04 312.26 283.71 286.77 276.88 268.11 295.54 274.94 321.03 256.28 339.69 230.78 332.86 212.12 351.52 218.95 377.02 200.29 395.68 174.8 388.85 156.14 407.51 162.97 433 144.3 451.67 118.81 444.83 111.98 419.34 86.49 412.51"/><path class="cls-7" d="M111.98,419.34l6.83,25.49,25.49,6.83,18.66-18.66-6.83-25.49,18.66-18.66,25.49,6.83,18.66-18.66-6.83-25.49,18.66-18.66,25.49,6.83,18.66-18.66-6.83-25.49,18.66-18.66,25.49,6.83,18.66-18.66-6.83-25.49,18.66-18.66-6.83-25.49-25.49-6.83-6.83-25.49-25.49-6.83-6.83-25.49-25.49-6.83-18.66,18.66,6.83,25.49-18.66,18.66-25.49-6.83h0l-6.83-25.49-25.49-6.83-18.66,18.66,6.83,25.49-18.66,18.66,6.83,25.49h0l-18.66,18.66,6.83,25.49,25.49,6.83,18.66-18.66-6.83-25.49,18.66-18.66,25.49,6.83,6.83,25.49,25.49,6.83,6.83,25.49-18.66,18.66-25.49-6.83-18.66,18.66-25.49-6.83-18.66,18.66-25.49-6.83-18.66,18.66-25.49-6.83-18.66,18.66,6.83,25.49,25.49,6.83,6.83,25.49,25.49,6.83Zm-57-39.97l-6.53-24.38,17.85-17.85,25.49,6.83,18.66-18.66,25.49,6.83,18.66-18.66,25.49,6.83,18.66-18.66,25.49,6.83,19.48-19.48-7.13-26.61-25.49-6.83-6.83-25.49-26.61-7.13-19.48,19.48,6.83,25.49-17.85,17.85-24.38-6.53-6.53-24.38,18.66-18.66-6.83-25.49,18.66-18.66-6.83-25.49,17.85-17.85,24.38,6.53,6.83,25.49,26.61,7.13,19.48-19.48-6.83-25.49,17.85-17.85,24.38,6.53,6.83,25.49,25.49,6.83,6.83,25.49,25.49,6.83,6.53,24.38-18.66,18.66,6.83,25.49-17.85,17.85-25.49-6.83-19.48,19.48,6.83,25.49-17.85,17.85-25.49-6.83-19.48,19.48,6.83,25.49-17.85,17.85-25.49-6.83-19.48,19.48,6.83,25.49-17.85,17.85-24.38-6.53-6.83-25.49-25.49-6.83-6.83-25.49-25.49-6.83Z"/></g><g class="cls-2"><polygon class="cls-5" points="244.44 383.85 251.27 409.35 232.61 428.01 207.11 421.18 188.45 439.84 162.96 433.01 144.3 451.67 118.8 444.84 100.14 463.5 106.97 489 88.31 507.66 62.82 500.83 44.16 519.49 50.99 544.98 32.32 563.64 6.83 556.81 0 531.32 18.66 512.66 11.83 487.17 30.49 468.5 55.99 475.33 74.65 456.67 67.82 431.18 86.48 412.52 111.97 419.35 130.63 400.69 123.8 375.19 142.47 356.53 167.96 363.36 174.79 388.86 200.28 395.69 218.94 377.02 212.11 351.53 186.62 344.7 179.79 319.21 154.3 312.38 147.47 286.88 166.13 268.22 191.62 275.05 210.28 256.39 235.78 263.22 242.61 288.71 223.94 307.38 230.78 332.87 256.27 339.7 263.1 365.19 244.44 383.85"/><path class="cls-7" d="M263.1,365.19l-6.83-25.49-25.49-6.83-6.83-25.49,18.66-18.66-6.83-25.49-25.49-6.83-18.66,18.66-25.49-6.83-18.66,18.66,6.83,25.49,25.49,6.83,6.83,25.49,25.49,6.83,6.83,25.49-18.66,18.66-25.49-6.83-6.83-25.49-25.49-6.83-18.66,18.66,6.83,25.49-18.66,18.66-25.49-6.83-18.66,18.66,6.83,25.49-18.66,18.66-25.49-6.83-18.66,18.66,6.83,25.49L0,531.32l6.83,25.49,25.49,6.83,18.66-18.66-6.83-25.49,18.66-18.66,25.49,6.83,18.66-18.66-6.83-25.49,18.66-18.66,25.49,6.83,18.66-18.66,25.49,6.83,18.66-18.66,25.49,6.83,18.66-18.66-6.83-25.49,18.66-18.66Zm-12.95,43.86l-17.85,17.85-25.49-6.83-18.66,18.66-25.49-6.83-18.66,18.66-25.49-6.83-19.48,19.48,6.83,25.49-17.85,17.85-25.49-6.83-19.48,19.48,6.83,25.49-17.85,17.85-24.38-6.53-6.53-24.38,18.66-18.66-6.83-25.49,17.85-17.85,25.49,6.83,19.48-19.48-6.83-25.49,17.85-17.85,25.49,6.83,19.48-19.48-6.83-25.49,17.85-17.85,24.38,6.53,6.83,25.49,26.61,7.13,19.48-19.48-7.13-26.61-25.49-6.83-6.83-25.49-25.49-6.83-6.53-24.38,17.85-17.85,25.49,6.83,18.66-18.66,24.38,6.53,6.53,24.38-18.66,18.66,7.13,26.61,25.49,6.83,6.53,24.38-18.66,18.66,6.83,25.49Z"/></g><g class="cls-12"><path class="cls-5" d="M398.64,164.79l-6.83-25.49-25.49-6.83-18.66,18.66-25.49-6.83-18.66,18.66,6.83,25.49,25.49,6.83,6.83,25.49h0l-18.66,18.66,6.83,25.49,25.49,6.83,18.66-18.66-6.83-25.49h0l18.66-18.66,25.49,6.83,6.83,25.49,25.49,6.83,6.83,25.49,25.49,6.83,18.66-18.66,25.49,6.83,6.83,25.49,25.49,6.83,18.66-18.66,25.49,6.83,18.66-18.66-6.83-25.49,18.66-18.66-6.83-25.49-25.49-6.83-6.83-25.49-25.49-6.83-6.83-25.49-25.49-6.83-6.83-25.49-25.49-6.83-6.83-25.49-25.49-6.83-6.83-25.49-25.49-6.83-6.83-25.49-25.49-6.83-18.66,18.66-25.49-6.83-18.66,18.66,6.83,25.49,25.49,6.83,6.83,25.49,25.49,6.83,6.83,25.49,25.49,6.83,6.83,25.49,25.49,6.83,18.66-18.66,25.49,6.83,6.83,25.49,25.49,6.83,6.83,25.49-18.66,18.66-25.49-6.83-18.66,18.66-25.49-6.83-6.83-25.49-25.49-6.83-6.83-25.49-25.49-6.83"/><path class="cls-7" d="M609.42,244.93l18.66-18.66-6.83-25.49-25.49-6.83-6.83-25.49-25.49-6.83-6.83-25.49-25.49-6.83-6.83-25.49-25.49-6.83-6.83-25.49-25.49-6.83-6.83-25.49-25.49-6.83-6.83-25.49-25.49-6.83-18.66,18.66-25.49-6.83-18.66,18.66,6.83,25.49,25.49,6.83,6.83,25.49,25.49,6.83,6.83,25.49,25.49,6.83,6.83,25.49,25.49,6.83,18.66-18.66,25.49,6.83,6.83,25.49,25.49,6.83,6.83,25.49-18.66,18.66-25.49-6.83-18.66,18.66-25.49-6.83-6.83-25.49-25.49-6.83-6.83-25.49-25.49-6.83h0l-6.83-25.49-25.49-6.83-18.66,18.66-25.49-6.83-18.66,18.66,6.83,25.49,25.49,6.83,6.83,25.49h0l-18.66,18.66,6.83,25.49,25.49,6.83,18.66-18.66-6.83-25.49h0l18.66-18.66,25.49,6.83,6.83,25.49,25.49,6.83,6.83,25.49,25.49,6.83,18.66-18.66,25.49,6.83,6.83,25.49,25.49,6.83,18.66-18.66,25.49,6.83,18.66-18.66-6.83-25.49Zm-12.13,43.04l-25.49-6.83-18.66,18.66-24.38-6.53-6.83-25.49-26.61-7.13-18.66,18.66-24.38-6.53-6.83-25.49-25.49-6.83-6.83-25.49-26.61-7.13-19.48,19.48,6.83,25.49-17.85,17.85-24.38-6.53-6.53-24.38,18.66-18.66-7.13-26.61-25.49-6.83-6.53-24.38,17.85-17.85,25.49,6.83,18.66-18.66,24.38,6.53,6.83,25.49,25.49,6.83,6.83,25.49,25.49,6.83,6.83,25.49,26.61,7.13,18.66-18.66,25.49,6.83,19.48-19.48-7.13-26.61-25.49-6.83-6.83-25.49-26.61-7.13-18.66,18.66-24.38-6.53-6.83-25.49-25.49-6.83-6.83-25.49-25.49-6.83-6.83-25.49-25.49-6.83-6.53-24.38,17.85-17.85,25.49,6.83L402.11,1.11l24.38,6.53,6.83,25.49,25.49,6.83,6.83,25.49,25.49,6.83,6.83,25.49,25.49,6.83,6.83,25.49,25.49,6.83,6.83,25.49,25.49,6.83,6.83,25.49,25.49,6.83,6.53,24.38-18.66,18.66,6.83,25.49-17.85,17.85Z"/></g><g class="cls-26"><polygon class="cls-18" points="451.3 273.45 432.63 292.11 407.14 285.28 400.31 259.79 374.82 252.96 367.99 227.46 386.65 208.8 412.14 215.63 418.97 241.13 444.46 247.96 451.3 273.45"/><path class="cls-7" d="M444.46,247.96l-25.49-6.83-6.83-25.49-25.49-6.83-18.66,18.66,6.83,25.49,25.49,6.83,6.83,25.49,25.49,6.83,18.66-18.66-6.83-25.49Zm-12.13,43.04l-24.38-6.53-6.83-25.49-25.49-6.83-6.53-24.38,17.85-17.85,24.38,6.53,6.83,25.49,25.49,6.83,6.53,24.38-17.85,17.85Z"/></g><g class="cls-13"><polygon class="cls-18" points="108.9 183.19 82.47 209.63 92.14 245.74 128.26 255.42 154.69 228.98 145.02 192.87 108.9 183.19"/><path class="cls-18" d="M145.02,192.87l-36.11-9.68-26.44,26.44,9.68,36.11,36.11,9.68,26.44-26.44-9.68-36.11Zm-17.06,61.43l-35-9.38-9.38-35,25.62-25.62,35,9.38,9.38,35-25.62,25.62Z"/></g><g class="cls-27"><polygon class="cls-18" points="550.91 181.39 524.47 207.83 534.15 243.94 570.26 253.62 596.7 227.18 587.02 191.07 550.91 181.39"/><path class="cls-18" d="M587.02,191.07l-36.11-9.68-26.44,26.44,9.68,36.11,36.11,9.68,26.44-26.44-9.68-36.11Zm-17.06,61.43l-35-9.38-9.38-35,25.62-25.62,35,9.38,9.38,35-25.62,25.62Z"/></g><g class="cls-31"><polygon class="cls-18" points="332.81 361.04 339.64 386.53 320.97 405.2 295.48 398.37 288.65 372.87 307.31 354.21 332.81 361.04"/><path class="cls-7" d="M307.31,354.21l-18.66,18.66,6.83,25.49,25.49,6.83,18.66-18.66-6.83-25.49-25.49-6.83Zm31.21,32.02l-17.85,17.85-24.38-6.53-6.53-24.38,17.85-17.85,24.38,6.53,6.53,24.38Z"/></g><g class="cls-20"><polygon class="cls-18" points="203.62 230.73 210.51 256.45 191.68 275.27 165.96 268.38 159.07 242.67 177.9 223.84 203.62 230.73"/><path class="cls-7" d="M177.9,223.84l-18.83,18.83,6.89,25.72,25.72,6.89,18.83-18.83-6.89-25.72-25.72-6.89Zm31.48,32.31l-18,18-24.59-6.59-6.59-24.59,18-18,24.59,6.59,6.59,24.59Z"/></g><g class="cls-4"><polygon class="cls-18" points="232.56 427.17 239.4 452.66 220.73 471.33 195.24 464.49 188.41 439 207.07 420.34 232.56 427.17"/><path class="cls-7" d="M207.07,420.34l-18.66,18.66,6.83,25.49,25.49,6.83,18.66-18.66-6.83-25.49-25.49-6.83Zm31.21,32.02l-17.85,17.85-24.38-6.53-6.53-24.38,17.85-17.85,24.38,6.53,6.53,24.38Z"/></g><g class="cls-19"><polygon class="cls-5" points="208.46 516.38 182.97 509.55 182.97 509.55 182.97 509.55 176.14 484.05 150.65 477.22 131.99 495.88 138.82 521.38 138.82 521.38 138.82 521.38 120.15 540.04 126.99 565.53 152.48 572.36 171.14 553.7 196.63 560.53 215.3 541.87 208.46 516.38"/><path class="cls-7" d="M208.46,516.09l-25.49-6.83h0l-6.83-25.49-25.49-6.83-18.66,18.66,6.83,25.49h0l-18.66,18.66,6.83,25.49,25.49,6.83,18.66-18.66,25.49,6.83,18.66-18.66-6.83-25.49Zm-12.13,43.04l-25.49-6.83-18.66,18.66-24.38-6.53-6.53-24.38,18.66-18.66-6.83-25.49,17.85-17.85,24.38,6.53,6.83,25.49,25.49,6.83,6.53,24.38-17.85,17.85Z"/></g><g class="cls-11"><polygon class="cls-5" points="709.61 177.16 684.12 170.33 665.46 188.99 665.46 188.99 639.96 182.16 621.3 200.83 628.13 226.32 628.13 226.32 628.13 226.32 609.47 244.98 616.3 270.47 641.79 277.31 660.46 258.64 653.62 233.15 653.62 233.15 653.62 233.15 672.29 214.49 672.29 214.49 672.29 214.49 697.78 221.32 716.44 202.66 709.61 177.16"/><path class="cls-7" d="M709.61,177.16l-25.49-6.83-18.66,18.66h0l-25.49-6.83-18.66,18.66,6.83,25.49h0l-18.66,18.66,6.83,25.49,25.49,6.55,18.66-18.66-6.83-25.21h0l18.66-18.66h0l25.49,6.83,18.66-18.66-6.83-25.49Zm-12.13,43.04l-25.49-6.83-19.48,19.48,6.83,25.49-17.85,17.85-24.38-6.53-6.53-24.38,18.66-18.66-6.83-25.49,17.85-17.85,25.49,6.83,18.66-18.66,24.38,6.53,6.53,24.38-17.85,17.85Z"/></g></g></g></g></svg>